<?xml version="1.0" encoding="UTF-8" standalone="no"?>
<!DOCTYPE svg PUBLIC "-//W3C//DTD SVG 1.1//EN"
 "http://www.w3.org/Graphics/SVG/1.1/DTD/svg11.dtd">
<!-- Generated by graphviz version 12.1.0 (20240811.2233)
 -->
<!-- Pages: 1 -->
<svg width="248pt" height="146pt"
 viewBox="0.00 0.00 248.00 146.00" xmlns="http://www.w3.org/2000/svg" xmlns:xlink="http://www.w3.org/1999/xlink">
<g id="graph0" class="graph" transform="scale(1 1) rotate(0) translate(4 142)">
<polygon fill="white" stroke="none" points="-4,4 -4,-142 244,-142 244,4 -4,4"/>
<g id="clust1" class="cluster">
<title>cluster_0</title>
<path fill="none" stroke="black" d="M20,-8C20,-8 220,-8 220,-8 226,-8 232,-14 232,-20 232,-20 232,-118 232,-118 232,-124 226,-130 220,-130 220,-130 20,-130 20,-130 14,-130 8,-124 8,-118 8,-118 8,-20 8,-20 8,-14 14,-8 20,-8"/>
<text text-anchor="middle" x="120" y="-112.7" font-family="Times,serif" font-size="14.00">Role Structure</text>
</g>
<g id="clust2" class="cluster">
<title>cluster_1</title>
<path fill="none" stroke="black" d="M28,-16C28,-16 84,-16 84,-16 90,-16 96,-22 96,-28 96,-28 96,-85.5 96,-85.5 96,-91.5 90,-97.5 84,-97.5 84,-97.5 28,-97.5 28,-97.5 22,-97.5 16,-91.5 16,-85.5 16,-85.5 16,-28 16,-28 16,-22 22,-16 28,-16"/>
<text text-anchor="middle" x="56" y="-80.2" font-family="Times,serif" font-size="14.00">Variables</text>
</g>
<g id="clust4" class="cluster">
<title>cluster_3</title>
<path fill="none" stroke="black" d="M116,-18.5C116,-18.5 212,-18.5 212,-18.5 218,-18.5 224,-24.5 224,-30.5 224,-30.5 224,-83 224,-83 224,-89 218,-95 212,-95 212,-95 116,-95 116,-95 110,-95 104,-89 104,-83 104,-83 104,-30.5 104,-30.5 104,-24.5 110,-18.5 116,-18.5"/>
<text text-anchor="middle" x="164" y="-77.7" font-family="Times,serif" font-size="14.00">Handlers</text>
</g>
<!-- var_defaults -->
<g id="node1" class="node">
<title>var_defaults</title>
<path fill="#e1f5fe" stroke="black" d="M76.38,-65C76.38,-65 35.62,-65 35.62,-65 29.62,-65 23.62,-59 23.62,-53 23.62,-53 23.62,-36 23.62,-36 23.62,-30 29.62,-24 35.62,-24 35.62,-24 76.38,-24 76.38,-24 82.38,-24 88.38,-30 88.38,-36 88.38,-36 88.38,-53 88.38,-53 88.38,-59 82.38,-65 76.38,-65"/>
<text text-anchor="middle" x="56" y="-47.7" font-family="Times,serif" font-size="14.00">defaults</text>
<text text-anchor="middle" x="56" y="-31.2" font-family="Times,serif" font-size="14.00">(16 vars)</text>
</g>
<!-- handler_Restart influxdb -->
<g id="node2" class="node">
<title>handler_Restart influxdb</title>
<path fill="#e1f5fe" stroke="black" d="M203.88,-62.5C203.88,-62.5 124.12,-62.5 124.12,-62.5 118.12,-62.5 112.12,-56.5 112.12,-50.5 112.12,-50.5 112.12,-38.5 112.12,-38.5 112.12,-32.5 118.12,-26.5 124.12,-26.5 124.12,-26.5 203.88,-26.5 203.88,-26.5 209.88,-26.5 215.88,-32.5 215.88,-38.5 215.88,-38.5 215.88,-50.5 215.88,-50.5 215.88,-56.5 209.88,-62.5 203.88,-62.5"/>
<text text-anchor="middle" x="164" y="-39.45" font-family="Times,serif" font-size="14.00">Restart influxdb</text>
</g>
</g>
</svg>
